<svg width="17" height="17" viewBox="0 0 17 17" fill="none" xmlns="http://www.w3.org/2000/svg">
    <path
        d="M6.66574 9.65581L4.74991 7.74331L3.57324 8.92331L6.66741 12.0108L12.2557 6.42247L11.0774 5.24414L6.66574 9.65581Z"
        fill="#6366F1" />
    <path
        d="M8.33333 0C3.73833 0 0 3.73833 0 8.33333C0 12.9283 3.73833 16.6667 8.33333 16.6667C12.9283 16.6667 16.6667 12.9283 16.6667 8.33333C16.6667 3.73833 12.9283 0 8.33333 0ZM8.33333 15C4.6575 15 1.66667 12.0092 1.66667 8.33333C1.66667 4.6575 4.6575 1.66667 8.33333 1.66667C12.0092 1.66667 15 4.6575 15 8.33333C15 12.0092 12.0092 15 8.33333 15Z"
        fill="#6366F1" />
</svg>