<svg width="384" height="52" viewBox="0 0 384 52" fill="none" xmlns="http://www.w3.org/2000/svg">
    <rect width="180" height="52" rx="8" fill="#0B0F19" />
    <path
        d="M43.5694 25.8085C43.5333 21.8987 46.8528 19.9966 47.0046 19.908C45.1246 17.2356 42.2107 16.8705 41.1867 16.8414C38.7394 16.5903 36.3655 18.2692 35.1188 18.2692C33.8473 18.2692 31.9275 16.8656 29.8584 16.9069C27.1958 16.9469 24.705 18.4499 23.3389 20.7839C20.5195 25.5428 22.6222 32.5362 25.3233 36.3829C26.6745 38.2668 28.2534 40.3703 30.32 40.2963C32.3418 40.2151 33.097 39.0396 35.5369 39.0396C37.9543 39.0396 38.6635 40.2963 40.7712 40.249C42.941 40.2151 44.3072 38.3566 45.6111 36.4557C47.1725 34.2964 47.7996 32.1699 47.8245 32.0607C47.7735 32.0437 43.6104 30.4946 43.5694 25.8085Z"
        fill="white" />
    <path
        d="M39.588 14.3109C40.6754 12.985 41.4194 11.1811 41.2129 9.35059C39.639 9.41852 37.6707 10.412 36.5372 11.7088C35.5344 12.8515 34.6386 14.7245 34.87 16.4859C36.638 16.6145 38.4533 15.6162 39.588 14.3109Z"
        fill="white" />
    <path
        d="M72.7597 40.0258H69.9341L68.3864 35.2838H63.0065L61.5321 40.0258H58.7812L64.1114 23.882H67.4035L72.7597 40.0258ZM67.9198 33.2944L66.5201 29.0789C66.372 28.6482 66.0946 27.6341 65.6852 26.0377H65.6355C65.4725 26.7243 65.21 27.7384 64.8492 29.0789L63.4743 33.2944H67.9198Z"
        fill="white" />
    <path
        d="M86.4669 34.0623C86.4669 36.042 85.9182 37.6069 84.8209 38.7557C83.8379 39.7783 82.6174 40.289 81.1605 40.289C79.5878 40.289 78.4581 39.7383 77.77 38.6368H77.7203V44.7689H75.0677V32.2172C75.0677 30.9725 75.0341 29.6952 74.9694 28.385H77.3022L77.4503 30.2301H77.5001C78.3847 28.8399 79.7271 28.1461 81.5287 28.1461C82.9372 28.1461 84.1129 28.6883 85.0535 29.774C85.9966 30.8609 86.4669 32.2899 86.4669 34.0623ZM83.7645 34.1569C83.7645 33.0239 83.5033 32.0898 82.9782 31.3547C82.4046 30.588 81.6345 30.2047 80.669 30.2047C80.0146 30.2047 79.4198 30.4182 78.8886 30.8391C78.3561 31.2637 78.0077 31.8181 77.8447 32.5047C77.7626 32.8249 77.7215 33.0869 77.7215 33.2932V35.2341C77.7215 36.0808 77.9878 36.7953 78.5203 37.3788C79.0528 37.9623 79.7446 38.2535 80.5956 38.2535C81.5947 38.2535 82.3723 37.8774 82.9284 37.1277C83.4858 36.3768 83.7645 35.387 83.7645 34.1569Z"
        fill="white" />
    <path
        d="M100.199 34.0623C100.199 36.042 99.6503 37.6069 98.5517 38.7557C97.5701 39.7783 96.3495 40.289 94.8926 40.289C93.3199 40.289 92.1902 39.7383 91.5034 38.6368H91.4536V44.7689H88.801V32.2172C88.801 30.9725 88.7674 29.6952 88.7027 28.385H91.0356L91.1837 30.2301H91.2334C92.1168 28.8399 93.4593 28.1461 95.2621 28.1461C96.6693 28.1461 97.845 28.6883 98.7881 29.774C99.7275 30.8609 100.199 32.2899 100.199 34.0623ZM97.4967 34.1569C97.4967 33.0239 97.2341 32.0898 96.7091 31.3547C96.1355 30.588 95.3679 30.2047 94.4011 30.2047C93.7454 30.2047 93.152 30.4182 92.6194 30.8391C92.0869 31.2637 91.7398 31.8181 91.5768 32.5047C91.4959 32.8249 91.4536 33.0869 91.4536 33.2932V35.2341C91.4536 36.0808 91.7199 36.7953 92.2499 37.3788C92.7824 37.9611 93.4742 38.2535 94.3277 38.2535C95.3268 38.2535 96.1044 37.8774 96.6606 37.1277C97.218 36.3768 97.4967 35.387 97.4967 34.1569Z"
        fill="white" />
    <path
        d="M115.552 35.4985C115.552 36.8718 115.063 37.989 114.082 38.8515C113.003 39.7941 111.501 40.2648 109.572 40.2648C107.79 40.2648 106.361 39.9299 105.28 39.2591L105.895 37.1035C107.059 37.7901 108.337 38.1346 109.73 38.1346C110.729 38.1346 111.506 37.9138 112.065 37.4747C112.621 37.0355 112.898 36.446 112.898 35.7108C112.898 35.0558 112.67 34.5038 112.21 34.0562C111.754 33.6086 110.991 33.1925 109.926 32.8079C107.027 31.7538 105.579 30.2095 105.579 28.1788C105.579 26.8517 106.087 25.7636 107.103 24.9168C108.116 24.0689 109.467 23.6455 111.157 23.6455C112.663 23.6455 113.915 23.9015 114.914 24.4122L114.251 26.5205C113.318 26.0256 112.263 25.7781 111.082 25.7781C110.149 25.7781 109.42 26.0025 108.897 26.4489C108.455 26.848 108.234 27.3345 108.234 27.9107C108.234 28.5488 108.487 29.0765 108.994 29.4914C109.436 29.8747 110.238 30.2896 111.403 30.7372C112.828 31.2964 113.874 31.9503 114.547 32.7C115.218 33.4472 115.552 34.3825 115.552 35.4985Z"
        fill="white" />
    <path
        d="M124.323 30.3259H121.399V35.9777C121.399 37.4152 121.914 38.1333 122.947 38.1333C123.421 38.1333 123.814 38.0933 124.125 38.0133L124.198 39.9772C123.676 40.1677 122.988 40.2635 122.135 40.2635C121.088 40.2635 120.269 39.9518 119.678 39.3295C119.09 38.7059 118.793 37.6602 118.793 36.1912V30.3235H117.052V28.3826H118.793V26.2512L121.399 25.4845V28.3826H124.323V30.3259Z"
        fill="white" />
    <path
        d="M137.515 34.1096C137.515 35.8989 136.99 37.3679 135.942 38.5167C134.843 39.6994 133.385 40.289 131.567 40.289C129.816 40.289 128.421 39.7225 127.381 38.5895C126.341 37.4565 125.821 36.0262 125.821 34.3024C125.821 32.4986 126.356 31.0211 127.429 29.8723C128.501 28.7223 129.946 28.1473 131.764 28.1473C133.516 28.1473 134.926 28.7138 135.989 29.848C137.007 30.9483 137.515 32.3688 137.515 34.1096ZM134.763 34.1933C134.763 33.1197 134.527 32.199 134.051 31.4311C133.495 30.5019 132.7 30.0385 131.67 30.0385C130.603 30.0385 129.793 30.5031 129.237 31.4311C128.761 32.2002 128.525 33.1355 128.525 34.2418C128.525 35.3154 128.761 36.2361 129.237 37.0028C129.811 37.932 130.612 38.3954 131.646 38.3954C132.659 38.3954 133.454 37.9223 134.027 36.9785C134.516 36.1961 134.763 35.2656 134.763 34.1933Z"
        fill="white" />
    <path
        d="M146.137 30.6596C145.874 30.6123 145.594 30.588 145.301 30.588C144.368 30.588 143.646 30.9313 143.138 31.6191C142.697 32.2257 142.475 32.9923 142.475 33.9179V40.0258H139.824L139.849 32.051C139.849 30.7093 139.815 29.4877 139.749 28.3862H142.06L142.157 30.6135H142.23C142.51 29.848 142.952 29.2318 143.556 28.7696C144.147 28.3535 144.786 28.1461 145.474 28.1461C145.719 28.1461 145.94 28.163 146.137 28.1934V30.6596Z"
        fill="white" />
    <path
        d="M158 33.6547C158 34.1181 157.969 34.5087 157.903 34.8277H149.945C149.977 35.9777 150.361 36.8572 151.1 37.4637C151.771 38.006 152.638 38.2777 153.703 38.2777C154.881 38.2777 155.956 38.0945 156.923 37.727L157.338 39.5223C156.209 40.0027 154.875 40.2417 153.336 40.2417C151.484 40.2417 150.031 39.7104 148.974 38.6489C147.919 37.5875 147.39 36.1621 147.39 34.374C147.39 32.6187 147.881 31.1569 148.865 29.9911C149.896 28.7465 151.288 28.1242 153.04 28.1242C154.76 28.1242 156.063 28.7465 156.948 29.9911C157.648 30.9798 158 32.2026 158 33.6547ZM155.471 32.9838C155.488 32.2171 155.315 31.5548 154.956 30.9956C154.497 30.2762 153.791 29.9171 152.842 29.9171C151.975 29.9171 151.269 30.2677 150.73 30.9713C150.289 31.5305 150.026 32.2014 149.945 32.9826H155.471V32.9838Z"
        fill="white" />
    <path
        d="M67.0427 13.9505C67.0427 15.3783 66.6035 16.4531 65.7264 17.1749C64.9139 17.8409 63.7593 18.1745 62.2638 18.1745C61.5223 18.1745 60.8877 18.1429 60.3564 18.0798V10.2785C61.0495 10.1693 61.796 10.1135 62.6022 10.1135C64.0268 10.1135 65.1005 10.4156 65.8247 11.0197C66.6359 11.7027 67.0427 12.6792 67.0427 13.9505ZM65.6679 13.9857C65.6679 13.0601 65.4166 12.3504 64.9139 11.8555C64.4113 11.3618 63.6772 11.1143 62.7105 11.1143C62.2999 11.1143 61.9503 11.141 61.6604 11.1968V17.1276C61.8209 17.1518 62.1145 17.1627 62.5412 17.1627C63.5391 17.1627 64.3092 16.8922 64.8517 16.3512C65.3942 15.8102 65.6679 15.0217 65.6679 13.9857Z"
        fill="white" />
    <path
        d="M74.3324 15.1975C74.3324 16.077 74.0749 16.7976 73.5598 17.3629C73.0198 17.944 72.3044 18.2339 71.4111 18.2339C70.5501 18.2339 69.8645 17.9561 69.3532 17.3981C68.8431 16.8413 68.588 16.1389 68.588 15.2922C68.588 14.4066 68.8505 13.68 69.3781 13.1159C69.9056 12.5518 70.6148 12.2692 71.5081 12.2692C72.3691 12.2692 73.0609 12.547 73.5847 13.1038C74.0823 13.6448 74.3324 14.3435 74.3324 15.1975ZM72.98 15.2388C72.98 14.7111 72.863 14.2586 72.6304 13.8814C72.3566 13.4252 71.9672 13.1972 71.4608 13.1972C70.937 13.1972 70.5389 13.4252 70.2652 13.8814C70.0313 14.2586 69.9155 14.7184 69.9155 15.2618C69.9155 15.7895 70.0325 16.242 70.2652 16.6193C70.5476 17.0754 70.9408 17.3035 71.4484 17.3035C71.9461 17.3035 72.3367 17.0718 72.6179 16.6072C72.8593 16.2226 72.98 15.7665 72.98 15.2388Z"
        fill="white" />
    <path
        d="M84.1067 12.3856L82.2716 18.1041H81.0772L80.317 15.6209C80.1241 15.001 79.9673 14.3848 79.8454 13.7734H79.8218C79.7085 14.4018 79.5518 15.0168 79.3502 15.6209L78.5427 18.1041H77.3346L75.609 12.3856H76.9489L77.6121 15.1041C77.7726 15.7471 77.9045 16.3597 78.0102 16.9395H78.0339C78.1309 16.4616 78.2914 15.8526 78.5179 15.1163L79.3502 12.3868H80.4128L81.2103 15.058C81.4031 15.7095 81.5599 16.3366 81.6806 16.9407H81.7167C81.805 16.3524 81.9381 15.7252 82.1148 15.058L82.8265 12.3868H84.1067V12.3856Z"
        fill="white" />
    <path
        d="M90.8664 18.1041H89.5625V14.8288C89.5625 13.8195 89.1693 13.3149 88.3805 13.3149C87.9936 13.3149 87.6813 13.4531 87.4387 13.7309C87.1986 14.0087 87.0766 14.3363 87.0766 14.7111V18.1029H85.7727V14.0197C85.7727 13.5174 85.7566 12.9728 85.7255 12.3832H86.8713L86.9323 13.2772H86.9684C87.1202 12.9995 87.3466 12.7702 87.644 12.587C87.9973 12.3735 88.393 12.2655 88.826 12.2655C89.3734 12.2655 89.8288 12.4378 90.1908 12.7835C90.6412 13.2069 90.8664 13.8389 90.8664 14.6784V18.1041Z"
        fill="white" />
    <path d="M94.4621 18.1041H93.1595V9.76172H94.4621V18.1041Z" fill="white" />
    <path
        d="M102.139 15.1975C102.139 16.077 101.881 16.7976 101.366 17.3629C100.826 17.944 100.11 18.2339 99.2174 18.2339C98.3552 18.2339 97.6697 17.9561 97.1595 17.3981C96.6494 16.8413 96.3944 16.1389 96.3944 15.2922C96.3944 14.4066 96.6569 13.68 97.1844 13.1159C97.712 12.5518 98.4211 12.2692 99.3132 12.2692C100.175 12.2692 100.866 12.547 101.391 13.1038C101.889 13.6448 102.139 14.3435 102.139 15.1975ZM100.785 15.2388C100.785 14.7111 100.668 14.2586 100.435 13.8814C100.163 13.4252 99.7723 13.1972 99.2672 13.1972C98.7421 13.1972 98.344 13.4252 98.0715 13.8814C97.8376 14.2586 97.7219 14.7184 97.7219 15.2618C97.7219 15.7895 97.8389 16.242 98.0715 16.6193C98.354 17.0754 98.7471 17.3035 99.2548 17.3035C99.7524 17.3035 100.142 17.0718 100.423 16.6072C100.666 16.2226 100.785 15.7665 100.785 15.2388Z"
        fill="white" />
    <path
        d="M108.449 18.1041H107.279L107.181 17.4454H107.145C106.745 17.9707 106.174 18.2339 105.432 18.2339C104.878 18.2339 104.431 18.0604 104.093 17.7159C103.787 17.4029 103.634 17.0135 103.634 16.5513C103.634 15.8526 103.933 15.3201 104.534 14.9513C105.134 14.5825 105.977 14.4018 107.063 14.4103V14.3035C107.063 13.5502 106.658 13.1741 105.845 13.1741C105.267 13.1741 104.757 13.3161 104.316 13.5975L104.051 12.7629C104.596 12.4341 105.269 12.2692 106.063 12.2692C107.596 12.2692 108.365 13.0577 108.365 14.6347V16.7406C108.365 17.312 108.393 17.7669 108.449 18.1041ZM107.096 16.1389V15.257C105.657 15.2327 104.938 15.6173 104.938 16.4094C104.938 16.7078 105.02 16.931 105.188 17.0803C105.356 17.2295 105.57 17.3035 105.825 17.3035C106.111 17.3035 106.379 17.2149 106.623 17.039C106.868 16.8619 107.018 16.6375 107.074 16.3621C107.088 16.3002 107.096 16.225 107.096 16.1389Z"
        fill="white" />
    <path
        d="M115.858 18.1041H114.701L114.64 17.1858H114.604C114.235 17.8845 113.605 18.2339 112.721 18.2339C112.014 18.2339 111.425 17.9634 110.959 17.4223C110.492 16.8813 110.26 16.1789 110.26 15.3164C110.26 14.3908 110.512 13.6412 111.02 13.0686C111.511 12.5348 112.113 12.2679 112.83 12.2679C113.618 12.2679 114.169 12.5263 114.482 13.0443H114.507V9.76172H115.812V16.5635C115.812 17.1203 115.827 17.6334 115.858 18.1041ZM114.507 15.6925V14.739C114.507 14.574 114.495 14.4406 114.471 14.3387C114.398 14.033 114.24 13.7758 114 13.5684C113.757 13.3609 113.465 13.2566 113.127 13.2566C112.641 13.2566 112.26 13.4446 111.98 13.8219C111.703 14.1992 111.562 14.6808 111.562 15.2691C111.562 15.8344 111.695 16.293 111.963 16.646C112.245 17.022 112.626 17.2101 113.103 17.2101C113.531 17.2101 113.873 17.0536 114.133 16.7394C114.384 16.4494 114.507 16.1001 114.507 15.6925Z"
        fill="white" />
    <path
        d="M127.01 15.1975C127.01 16.077 126.753 16.7976 126.237 17.3629C125.697 17.944 124.983 18.2339 124.089 18.2339C123.229 18.2339 122.543 17.9561 122.031 17.3981C121.521 16.8413 121.266 16.1389 121.266 15.2922C121.266 14.4066 121.528 13.68 122.056 13.1159C122.583 12.5518 123.292 12.2692 124.187 12.2692C125.047 12.2692 125.74 12.547 126.262 13.1038C126.76 13.6448 127.01 14.3435 127.01 15.1975ZM125.659 15.2388C125.659 14.7111 125.542 14.2586 125.309 13.8814C125.034 13.4252 124.646 13.1972 124.139 13.1972C123.616 13.1972 123.218 13.4252 122.943 13.8814C122.709 14.2586 122.593 14.7184 122.593 15.2618C122.593 15.7895 122.71 16.242 122.943 16.6193C123.225 17.0754 123.618 17.3035 124.126 17.3035C124.624 17.3035 125.016 17.0718 125.297 16.6072C125.537 16.2226 125.659 15.7665 125.659 15.2388Z"
        fill="white" />
    <path
        d="M134.021 18.1041H132.718V14.8288C132.718 13.8195 132.325 13.3149 131.535 13.3149C131.148 13.3149 130.836 13.4531 130.595 13.7309C130.353 14.0087 130.233 14.3363 130.233 14.7111V18.1029H128.927V14.0197C128.927 13.5174 128.912 12.9728 128.881 12.3832H130.026L130.087 13.2772H130.123C130.276 12.9995 130.503 12.7702 130.799 12.587C131.153 12.3735 131.548 12.2655 131.982 12.2655C132.528 12.2655 132.983 12.4378 133.345 12.7835C133.797 13.2069 134.021 13.8389 134.021 14.6784V18.1041Z"
        fill="white" />
    <path
        d="M142.796 13.3379H141.361V16.1159C141.361 16.8219 141.616 17.1749 142.121 17.1749C142.355 17.1749 142.549 17.1555 142.702 17.1154L142.735 18.0798C142.478 18.1745 142.139 18.2218 141.723 18.2218C141.208 18.2218 140.807 18.0689 140.517 17.7632C140.226 17.4575 140.082 16.9432 140.082 16.2214V13.3379H139.224V12.3856H140.082V11.3375L141.359 10.9615V12.3844H142.795V13.3379H142.796Z"
        fill="white" />
    <path
        d="M149.699 18.1041H148.394V14.853C148.394 13.828 148.001 13.3148 147.213 13.3148C146.609 13.3148 146.195 13.612 145.969 14.2065C145.93 14.3314 145.908 14.4843 145.908 14.6638V18.1029H144.605V9.76172H145.908V13.2081H145.933C146.344 12.5809 146.932 12.2679 147.695 12.2679C148.235 12.2679 148.681 12.4402 149.036 12.7859C149.478 13.2166 149.699 13.8571 149.699 14.7038V18.1041Z"
        fill="white" />
    <path
        d="M156.82 14.9743C156.82 15.2024 156.802 15.3941 156.771 15.5505H152.861C152.878 16.1158 153.065 16.5465 153.427 16.8449C153.758 17.1118 154.184 17.2452 154.707 17.2452C155.286 17.2452 155.813 17.1555 156.288 16.9747L156.492 17.8578C155.936 18.0932 155.282 18.2108 154.524 18.2108C153.616 18.2108 152.9 17.95 152.383 17.4284C151.863 16.9068 151.605 16.2068 151.605 15.3286C151.605 14.4661 151.845 13.7479 152.329 13.1753C152.834 12.5639 153.518 12.2582 154.38 12.2582C155.223 12.2582 155.864 12.5639 156.297 13.1753C156.647 13.6606 156.82 14.261 156.82 14.9743ZM155.575 14.6456C155.585 14.2683 155.499 13.9432 155.323 13.6691C155.096 13.3161 154.752 13.1389 154.285 13.1389C153.86 13.1389 153.513 13.3112 153.248 13.6569C153.031 13.9323 152.903 14.261 152.861 14.6456H155.575Z"
        fill="white" />
    <rect width="144" height="41.6" rx="8" transform="matrix(1.25 0 0 -1.25 204 52)" fill="#0B0F19" />
    <path
        d="M270.505 14.9595C270.505 15.9109 270.213 16.6729 269.638 17.2412C268.977 17.9148 268.117 18.2538 267.062 18.2538C266.054 18.2538 265.193 17.9091 264.487 17.2298C263.78 16.5404 263.427 15.6945 263.427 14.6818C263.427 13.6692 263.78 12.8232 264.487 12.1396C265.193 11.4545 266.054 11.1099 267.062 11.1099C267.564 11.1099 268.042 11.211 268.499 11.399C268.954 11.5884 269.324 11.8448 269.593 12.1609L268.983 12.762C268.515 12.2222 267.877 11.9559 267.062 11.9559C266.327 11.9559 265.689 12.2065 265.148 12.7121C264.613 13.2191 264.344 13.8757 264.344 14.6818C264.344 15.4879 264.613 16.1502 265.148 16.6572C265.689 17.1571 266.327 17.4135 267.062 17.4135C267.842 17.4135 268.499 17.1571 269.017 16.6515C269.358 16.3168 269.552 15.8554 269.603 15.2658H267.062V14.4426H270.452C270.493 14.6206 270.505 14.7929 270.505 14.9595Z"
        fill="white" />
    <path
        d="M275.883 12.1054H272.698V14.2702H275.569V15.0934H272.698V17.2582H275.883V18.0971H271.797V11.2665H275.883V12.1054Z"
        fill="white" />
    <path d="M279.679 18.0971H278.777V12.1054H276.824V11.2665H281.633V12.1054H279.679V18.0971Z" fill="white" />
    <path d="M285.114 18.0971V11.2665H286.014V18.0971H285.114Z" fill="white" />
    <path d="M290.003 18.0971H289.109V12.1054H287.149V11.2665H291.964V12.1054H290.003V18.0971Z" fill="white" />
    <path
        d="M301.07 17.2184C300.38 17.9091 299.525 18.2538 298.505 18.2538C297.48 18.2538 296.625 17.9091 295.935 17.2184C295.246 16.529 294.903 15.6831 294.903 14.6818C294.903 13.6806 295.246 12.8346 295.935 12.1453C296.625 11.4545 297.48 11.1099 298.505 11.1099C299.519 11.1099 300.374 11.4545 301.064 12.151C301.758 12.846 302.101 13.6863 302.101 14.6818C302.101 15.6831 301.758 16.529 301.07 17.2184ZM296.601 16.6458C297.121 17.1571 297.752 17.4135 298.505 17.4135C299.252 17.4135 299.889 17.1571 300.403 16.6458C300.921 16.1345 301.183 15.478 301.183 14.6818C301.183 13.8857 300.921 13.2291 300.403 12.7178C299.889 12.2065 299.252 11.9502 298.505 11.9502C297.752 11.9502 297.121 12.2065 296.601 12.7178C296.084 13.2291 295.821 13.8857 295.821 14.6818C295.821 15.478 296.084 16.1345 296.601 16.6458Z"
        fill="white" />
    <path
        d="M303.366 18.0971V11.2665H304.46L307.861 16.5789H307.901L307.861 15.2658V11.2665H308.761V18.0971H307.822L304.26 12.5227H304.22L304.26 13.8415V18.0971H303.366Z"
        fill="white" />
    <path
        d="M294.682 28.0724C291.941 28.0724 289.702 30.109 289.702 32.919C289.702 35.7062 291.941 37.7642 294.682 37.7642C297.429 37.7642 299.668 35.7062 299.668 32.919C299.668 30.109 297.429 28.0724 294.682 28.0724ZM294.682 35.8558C293.178 35.8558 291.884 34.6437 291.884 32.919C291.884 31.1715 293.178 29.9808 294.682 29.9808C296.186 29.9808 297.486 31.1715 297.486 32.919C297.486 34.6437 296.186 35.8558 294.682 35.8558V35.8558ZM283.816 28.0724C281.069 28.0724 278.836 30.109 278.836 32.919C278.836 35.7062 281.069 37.7642 283.816 37.7642C286.561 37.7642 288.796 35.7062 288.796 32.919C288.796 30.109 286.561 28.0724 283.816 28.0724ZM283.816 35.8558C282.311 35.8558 281.012 34.6437 281.012 32.919C281.012 31.1715 282.311 29.9808 283.816 29.9808C285.32 29.9808 286.614 31.1715 286.614 32.919C286.614 34.6437 285.32 35.8558 283.816 35.8558ZM270.886 29.5578V31.6173H275.923C275.775 32.768 275.382 33.614 274.778 34.2037C274.042 34.9158 272.897 35.7062 270.886 35.7062C267.786 35.7062 265.359 33.2637 265.359 30.2372C265.359 27.2107 267.786 24.7681 270.886 24.7681C272.562 24.7681 273.781 25.4076 274.681 26.2365L276.168 24.7852C274.909 23.6117 273.234 22.7101 270.886 22.7101C266.635 22.7101 263.062 26.087 263.062 30.2372C263.062 34.3874 266.635 37.7642 270.886 37.7642C273.183 37.7642 274.909 37.0293 276.266 35.6507C277.656 34.2934 278.089 32.3849 278.089 30.8439C278.089 30.3654 278.048 29.9253 277.975 29.5578H270.886ZM323.759 31.1544C323.349 30.0705 322.084 28.0724 319.508 28.0724C316.956 28.0724 314.83 30.0364 314.83 32.919C314.83 35.6336 316.934 37.7642 319.753 37.7642C322.033 37.7642 323.349 36.4069 323.89 35.6165L322.198 34.5156C321.634 35.3217 320.865 35.8558 319.753 35.8558C318.649 35.8558 317.857 35.3615 317.349 34.3874L323.988 31.7056L323.759 31.1544V31.1544ZM316.991 32.768C316.934 30.8994 318.477 29.9424 319.583 29.9424C320.449 29.9424 321.184 30.3654 321.43 30.9707L316.991 32.768V32.768ZM311.595 37.4694H313.777V23.2271H311.595V37.4694ZM308.021 29.1519H307.948C307.458 28.5851 306.523 28.0724 305.338 28.0724C302.852 28.0724 300.58 30.203 300.58 32.9347C300.58 35.6507 302.852 37.7642 305.338 37.7642C306.523 37.7642 307.458 37.2472 307.948 36.6633H308.021V37.3583C308.021 39.2112 307.007 40.2068 305.372 40.2068C304.038 40.2068 303.211 39.2668 302.87 38.4763L300.972 39.2497C301.519 40.5343 302.968 42.1152 305.372 42.1152C307.93 42.1152 310.089 40.6454 310.089 37.0692V28.3672H308.021V29.1519V29.1519ZM305.525 35.8558C304.021 35.8558 302.762 34.6266 302.762 32.9347C302.762 31.227 304.021 29.9808 305.525 29.9808C307.007 29.9808 308.175 31.227 308.175 32.9347C308.175 34.6266 307.007 35.8558 305.525 35.8558V35.8558ZM333.976 23.2271H328.757V37.4694H330.933V32.073H333.976C336.393 32.073 338.764 30.3654 338.764 27.6494C338.764 24.9348 336.387 23.2271 333.976 23.2271V23.2271ZM334.033 30.0919H330.933V25.2082H334.033C335.658 25.2082 336.586 26.5256 336.586 27.6494C336.586 28.7517 335.658 30.0919 334.033 30.0919ZM347.487 28.0453C345.914 28.0453 344.279 28.7232 343.607 30.2258L345.538 31.0162C345.954 30.2258 346.718 29.9694 347.526 29.9694C348.655 29.9694 349.801 30.6317 349.818 31.801V31.9505C349.424 31.7283 348.581 31.3993 347.544 31.3993C345.464 31.3993 343.344 32.5174 343.344 34.6039C343.344 36.5123 345.048 37.7414 346.963 37.7414C348.428 37.7414 349.236 37.0963 349.744 36.3457H349.818V37.4466H351.92V31.9833C351.92 29.4581 349.989 28.0453 347.487 28.0453ZM347.224 35.8501C346.513 35.8501 345.521 35.5054 345.521 34.6437C345.521 33.5414 346.758 33.1184 347.828 33.1184C348.787 33.1184 349.236 33.3249 349.818 33.5969C349.647 34.9158 348.485 35.8501 347.224 35.8501V35.8501ZM359.578 28.3572L357.077 34.5312H357.002L354.416 28.3572H352.069L355.955 36.9852L353.738 41.7862H356.012L362 28.3572H359.578V28.3572ZM339.96 37.4694H342.142V23.2271H339.96V37.4694Z"
        fill="white" />
    <path
        d="M226.541 11.8776C226.198 12.2279 226 12.7734 226 13.4798V38.6773C226 39.3837 226.198 39.9292 226.541 40.2795L226.626 40.3564L241.088 26.2424V25.9091L226.626 11.795L226.541 11.8776Z"
        fill="url(#paint0_linear_4424_16994)" />
    <path
        d="M245.902 30.9492L241.087 26.2421V25.9089L245.908 21.2018L246.016 21.263L251.725 24.4348C253.355 25.3349 253.355 26.8161 251.725 27.7219L246.016 30.888L245.902 30.9492V30.9492Z"
        fill="url(#paint1_linear_4424_16994)" />
    <path
        d="M246.016 30.888L241.087 26.0756L226.54 40.2794C227.081 40.8348 227.964 40.9018 228.967 40.3463L246.016 30.888"
        fill="url(#paint2_linear_4424_16994)" />
    <path
        d="M246.016 21.2632L228.967 11.8049C227.964 11.2552 227.081 11.3221 226.54 11.8776L241.087 26.0757L246.016 21.2632Z"
        fill="url(#paint3_linear_4424_16994)" />
    <defs>
        <linearGradient id="paint0_linear_4424_16994" x1="239.804" y1="38.9397" x2="220.688" y2="19.3604"
            gradientUnits="userSpaceOnUse">
            <stop stop-color="#00A0FF" />
            <stop offset="0.0066" stop-color="#00A1FF" />
            <stop offset="0.2601" stop-color="#00BEFF" />
            <stop offset="0.5122" stop-color="#00D2FF" />
            <stop offset="0.7604" stop-color="#00DFFF" />
            <stop offset="1" stop-color="#00E3FF" />
        </linearGradient>
        <linearGradient id="paint1_linear_4424_16994" x1="253.847" y1="26.0739" x2="225.61" y2="26.0739"
            gradientUnits="userSpaceOnUse">
            <stop stop-color="#FFE000" />
            <stop offset="0.4087" stop-color="#FFBD00" />
            <stop offset="0.7754" stop-color="#FFA500" />
            <stop offset="1" stop-color="#FF9C00" />
        </linearGradient>
        <linearGradient id="paint2_linear_4424_16994" x1="243.335" y1="23.4594" x2="217.412" y2="-3.09167"
            gradientUnits="userSpaceOnUse">
            <stop stop-color="#FF3A44" />
            <stop offset="1" stop-color="#C31162" />
        </linearGradient>
        <linearGradient id="paint3_linear_4424_16994" x1="222.878" y1="48.6626" x2="234.454" y2="36.8064"
            gradientUnits="userSpaceOnUse">
            <stop stop-color="#32A071" />
            <stop offset="0.0685" stop-color="#2DA771" />
            <stop offset="0.4762" stop-color="#15CF74" />
            <stop offset="0.8009" stop-color="#06E775" />
            <stop offset="1" stop-color="#00F076" />
        </linearGradient>
    </defs>
</svg>